<?xml version="1.0" standalone="no"?>
<!DOCTYPE svg PUBLIC "-//W3C//DTD SVG 20010904//EN"
 "http://www.w3.org/TR/2001/REC-SVG-20010904/DTD/svg10.dtd">
<svg version="1.0" xmlns="http://www.w3.org/2000/svg"
 width="200.000000pt" height="200.000000pt" viewBox="0 0 200.000000 200.000000"
 preserveAspectRatio="xMidYMid meet">
<metadata>
Created by potrace 1.14, written by Peter Selinger 2001-2017
</metadata>
<g transform="translate(0.000000,200.000000) scale(0.100000,-0.100000)"
fill="#000000" stroke="none">
<path d="M940 1847 c-3 -3 -23 -7 -45 -10 -155 -22 -338 -121 -472 -256 -183
-182 -275 -421 -259 -670 6 -89 18 -127 36 -116 5 3 14 -20 20 -51 29 -139 96
-262 196 -360 127 -125 311 -200 484 -197 209 3 304 19 325 53 4 6 24 18 46
26 22 9 36 21 32 27 -3 6 -1 7 5 3 30 -18 243 155 318 259 16 22 31 42 34 45
6 6 27 42 55 95 40 75 74 185 91 290 10 61 4 204 -11 270 -29 123 -89 234
-176 326 -130 136 -272 224 -414 255 -38 8 -258 17 -265 11z m202 -648 c15 -9
17 -102 3 -163 -8 -37 -7 -39 13 -34 20 6 20 5 5 -18 -8 -13 -32 -31 -52 -40
-20 -9 -61 -28 -91 -42 -86 -42 -196 -37 -221 10 -25 46 25 164 92 222 24 20
65 45 93 56 51 19 133 24 158 9z"/>
</g>
</svg>
